<svg class="animated" id="freepik_stories-cooking" xmlns="http://www.w3.org/2000/svg" viewBox="0 0 500 500" version="1.1" xmlnsXlink="http://www.w3.org/1999/xlink" xmlnsSvgjs="http://svgjs.com/svgjs"><style>svg#freepik_stories-cooking:not(.animated) .animable {opacity: 0;}svg#freepik_stories-cooking.animated #freepik--Character--inject-52 {animation: 1.5s Infinite  linear wind;animation-delay: 0s;}            @keyframes wind {                0% {                    transform: rotate( 0deg );                }                25% {                    transform: rotate( 1deg );                }                75% {                    transform: rotate( -1deg );                }            }        </style><g id="freepik--background-simple--inject-52" style="transform-origin: 247.083px 218.47px 0px;" class="animable"><path d="M319.31,68.34c63.35,4.68,61.08,57.48,51.45,88.24-12,38.29-25.86,65.52-13.23,108.63,10.1,34.48,31.39,75.12-8.56,96.37-32.75,17.41-78.42,1.16-107.16-25.53-25.55-23.74-32-54.62-59-78.18-17.28-15.09-37.76-28.31-51.92-45.41-15.3-18.48-15.75-40.18-6.22-57.21,16.54-29.59,58.94-31.15,92.14-44.27C249,98.27,277.8,65.27,319.31,68.34Z" style="fill: rgb(157, 122, 175); transform-origin: 247.083px 218.47px 0px;" id="el5k1njp6cgxm" class="animable"></path><g id="el6neexucdkn5"><path d="M319.31,68.34c63.35,4.68,61.08,57.48,51.45,88.24-12,38.29-25.86,65.52-13.23,108.63,10.1,34.48,31.39,75.12-8.56,96.37-32.75,17.41-78.42,1.16-107.16-25.53-25.55-23.74-32-54.62-59-78.18-17.28-15.09-37.76-28.31-51.92-45.41-15.3-18.48-15.75-40.18-6.22-57.21,16.54-29.59,58.94-31.15,92.14-44.27C249,98.27,277.8,65.27,319.31,68.34Z" style="fill: rgb(255, 255, 255); opacity: 0.9; transform-origin: 247.083px 218.47px 0px;" class="animable"></path></g></g><g id="freepik--Shadow--inject-52" style="transform-origin: 250px 416.24px 0px;" class="animable"><ellipse id="freepik--path--inject-52" cx="250" cy="416.24" rx="193.89" ry="11.32" style="fill: rgb(245, 245, 245); transform-origin: 250px 416.24px 0px;" class="animable"></ellipse></g><g id="freepik--Oven--inject-52" style="transform-origin: 182.135px 319.103px 0px;" class="animable"><rect x="104.5" y="291.44" width="1" height="20.47" style="fill: rgb(157, 122, 175); transform-origin: 105px 301.675px 0px;" id="elv0t97jyqc8" class="animable"></rect><rect x="104.5" y="317.5" width="1" height="5.5" style="fill: rgb(157, 122, 175); transform-origin: 105px 320.25px 0px;" id="elnytq1m1rr0c" class="animable"></rect><rect x="108" y="236.99" width="151.76" height="178.13" style="fill: rgb(157, 122, 175); transform-origin: 183.88px 326.055px 0px;" id="el0z0lozwn64i" class="animable"></rect><g id="el7uxuolmyw35"><path d="M190,234.38a6.92,6.92,0,0,1-.79-4.95.24.24,0,0,0-.43-.18,9,9,0,0,0-.54.83.24.24,0,0,1-.44-.13,8,8,0,0,0-1.11-4.74c-.18,1.6-2.36,4.93-2.59,7.57a.24.24,0,0,1-.48,0,9.12,9.12,0,0,1-.13-1.05.24.24,0,0,0-.47-.05,2.17,2.17,0,0,1-.07.24q-.1-.45-.24-.87a.35.35,0,0,0-.69.08,11.92,11.92,0,0,1-.21,1.56.35.35,0,0,1-.7,0c-.34-3.78-3.36-8.51-3.82-11a.11.11,0,0,0-.2,0,12.15,12.15,0,0,0-1.49,6.81.36.36,0,0,1-.67.2,11.15,11.15,0,0,0-.79-1.25.36.36,0,0,0-.64.28,10.67,10.67,0,0,1-.71,6.5.36.36,0,0,1,0-.09,5.73,5.73,0,0,1-.66-4.09.2.2,0,0,0-.35-.15,7.1,7.1,0,0,0-.44.69.2.2,0,0,1-.37-.1,6.54,6.54,0,0,0-.92-3.92c-.14,1.32-1.94,4.07-2.14,6.25a.2.2,0,0,1-.39,0,8.62,8.62,0,0,1-.11-.87.2.2,0,0,0-.39,0c-.91,2.88-.44,7.38,3.3,7.08a4.3,4.3,0,0,0,1-.2c.11,2.54,1.92,4.79,5.48,5.07,4,.32,5.87-2.33,6.46-5.63a3.61,3.61,0,0,0,3.78,2.07C190.53,240,191.5,236.82,190,234.38Z" style="fill: rgb(157, 122, 175); opacity: 0.7; transform-origin: 178.652px 232.776px 0px;" class="animable"></path></g><rect x="114.01" y="235" width="139.73" height="1.99" style="fill: rgb(38, 50, 56); transform-origin: 183.875px 235.995px 0px;" id="elp20zta52fe" class="animable"></rect><g id="elz0a8c7xbh3s"><rect x="244.31" y="236.99" width="15.46" height="178.13" style="opacity: 0.2; transform-origin: 252.04px 326.055px 0px;" class="animable"></rect></g><g id="elsv73suxpvz9"><rect x="108" y="265.96" width="136.31" height="1.93" style="opacity: 0.2; transform-origin: 176.155px 266.925px 0px; transform: rotate(180deg);" class="animable"></rect></g><g id="ell03dj7jnqz"><rect x="154.01" y="246.77" width="44.28" height="9.41" style="opacity: 0.3; transform-origin: 176.15px 251.475px 0px; transform: rotate(180deg);" class="animable"></rect></g><g id="elvvj5fw8klfl"><rect x="108" y="398.49" width="136.31" height="1.93" style="opacity: 0.2; transform-origin: 176.155px 399.455px 0px; transform: rotate(180deg);" class="animable"></rect></g><g id="ely7t114w9u9"><rect x="115.61" y="282.93" width="121.09" height="102.81" rx="1.66" style="fill: rgb(38, 50, 56); opacity: 0.7; transform-origin: 176.155px 334.335px 0px; transform: rotate(180deg);" class="animable"></rect></g><g id="elv6iyf0z4fu"><rect x="138.67" y="273.01" width="74.96" height="3.34" rx="1.64" style="fill: rgb(38, 50, 56); opacity: 0.2; transform-origin: 176.15px 274.68px 0px; transform: rotate(180deg);" class="animable"></rect></g><g id="ellb6ci2axrg"><rect x="132.36" y="281.4" width="87.6" height="105.88" rx="8.24" style="fill: rgb(157, 122, 175); opacity: 0.2; transform-origin: 176.16px 334.34px 0px; transform: rotate(90deg);" class="animable"></rect></g><g id="elj5lasq6phuk"><rect x="175.47" y="281.4" width="1.38" height="105.88" style="fill: rgb(157, 122, 175); opacity: 0.2; transform-origin: 176.16px 334.34px 0px; transform: rotate(90deg);" class="animable"></rect></g><g id="elgd151uhq3lu"><rect x="175.47" y="304.5" width="1.38" height="105.88" style="fill: rgb(157, 122, 175); opacity: 0.2; transform-origin: 176.16px 357.44px 0px; transform: rotate(90deg);" class="animable"></rect></g><g id="elvk2j3k3potb"><rect x="175.47" y="258.29" width="1.38" height="105.88" style="fill: rgb(157, 122, 175); opacity: 0.2; transform-origin: 176.16px 311.23px 0px; transform: rotate(90deg);" class="animable"></rect></g><rect x="115.7" y="415.12" width="11.96" height="1.46" style="fill: rgb(38, 50, 56); transform-origin: 121.68px 415.85px 0px;" id="elouozvj4i9sd" class="animable"></rect><rect x="224.65" y="415.12" width="11.96" height="1.46" style="fill: rgb(38, 50, 56); transform-origin: 230.63px 415.85px 0px;" id="elpqdmf3nkk2" class="animable"></rect><rect x="240.1" y="415.12" width="11.96" height="1.46" style="fill: rgb(38, 50, 56); transform-origin: 246.08px 415.85px 0px;" id="elwb7j95nbi2p" class="animable"></rect><rect x="131.16" y="415.12" width="11.96" height="1.46" style="fill: rgb(38, 50, 56); transform-origin: 137.14px 415.85px 0px;" id="elp9b080i2puk" class="animable"></rect><g id="elix5x6h8p0c9"><path d="M146.31,251.48a4.71,4.71,0,1,1-4.7-4.71A4.7,4.7,0,0,1,146.31,251.48Z" style="fill: rgb(38, 50, 56); opacity: 0.7; transform-origin: 141.6px 251.48px 0px;" class="animable"></path></g><g id="el509ue89i5jf"><path d="M131.57,251.48a4.71,4.71,0,1,1-4.71-4.71A4.7,4.7,0,0,1,131.57,251.48Z" style="fill: rgb(38, 50, 56); opacity: 0.7; transform-origin: 126.86px 251.48px 0px;" class="animable"></path></g><g id="el3xhi0xz5j4q"><path d="M230.15,251.48a4.71,4.71,0,1,1-4.7-4.71A4.69,4.69,0,0,1,230.15,251.48Z" style="fill: rgb(38, 50, 56); opacity: 0.7; transform-origin: 225.44px 251.48px 0px;" class="animable"></path></g><g id="el9fmse0wamzm"><path d="M215.41,251.48a4.71,4.71,0,1,1-4.71-4.71A4.7,4.7,0,0,1,215.41,251.48Z" style="fill: rgb(38, 50, 56); opacity: 0.7; transform-origin: 210.7px 251.48px 0px;" class="animable"></path></g></g><g id="freepik--Character--inject-52" style="transform-origin: 264.952px 260.681px 0px;" class="animable"><path d="M353.25,166.93c2.09-18.27,9.68-50.51-6.47-59.87-11.77-6.82-16.57,3.21-24.85,9.89l2.75,1.68s18.18-14.24,18.93,4c.64,15.76-12.08,18.37-18.61,55.56s40.21,31,43.74,25.54C352.71,205.07,351.17,185.21,353.25,166.93Z" style="fill: rgb(38, 50, 56); transform-origin: 345.335px 156.319px 0px;" id="el36wu71o0l6b" class="animable"></path><path d="M322.15,116.42c1.26-1.9,5.07-6.43,6.16-6.46s5.11,3.26,4.56,4.79-7.36,4.55-7.36,4.55Z" style="fill: rgb(157, 122, 175); transform-origin: 327.536px 114.63px 0px;" id="eliii4rlpik2c" class="animable"></path><path d="M364.11,202.15a7.79,7.79,0,0,1-4.47-1.41c-6.46-4.4-8.77-18.4-7.71-30,.22-2.37.54-5,.89-7.78,2-15.87,4.65-37.61-9-45l.44-.83c14.2,7.68,11.46,29.79,9.46,45.93-.34,2.77-.67,5.39-.88,7.75-1,11.27,1.14,24.88,7.3,29.08,2.4,1.63,5.22,1.65,8.4,0l.42.84A10.82,10.82,0,0,1,364.11,202.15Z" style="fill: rgb(38, 50, 56); transform-origin: 356.39px 159.64px 0px;" id="elav3t6udah9" class="animable"></path><path d="M338.48,169.63a121.5,121.5,0,0,1,6.44,12.25,107.52,107.52,0,0,1,5,13l.26.84.07.22.11.4c.07.27.11.52.16.77a11,11,0,0,1,.06,2.66,18.61,18.61,0,0,1-1,4.12,40.52,40.52,0,0,1-3.15,6.62,75.49,75.49,0,0,1-8.15,11.26l-3.65-2.58c2-3.85,4-7.83,5.66-11.74a40.13,40.13,0,0,0,2-5.76,10.57,10.57,0,0,0,.34-2.45,2.41,2.41,0,0,0-.08-.69s0,0,0,0h0l-.06-.17-.3-.75c-1.56-4-3.38-7.91-5.32-11.8s-4-7.8-6.09-11.48Z" style="fill: rgb(255, 195, 189); transform-origin: 340.707px 195.7px 0px;" id="el4swnj89zyam" class="animable"></path><path d="M293.75,174.31c-.52,1.39-1,2.57-1.55,3.81s-1.1,2.44-1.67,3.64c-1.15,2.4-2.45,4.74-3.77,7.05A86.2,86.2,0,0,1,277.48,202l-.67.77-.33.38-.17.19-.28.3a9.75,9.75,0,0,1-2.57,1.92,13,13,0,0,1-5.27,1.33,27.16,27.16,0,0,1-8.75-1.22A61.64,61.64,0,0,1,244.79,199l2-4A84.81,84.81,0,0,0,261,198.92a22.3,22.3,0,0,0,6.52.3,5.38,5.38,0,0,0,2.1-.7,1.87,1.87,0,0,0,.45-.43l1-1.33A102.14,102.14,0,0,0,279,184.41c1.18-2.16,2.27-4.38,3.35-6.6.53-1.11,1.05-2.23,1.55-3.35s1-2.29,1.41-3.3Z" style="fill: rgb(255, 195, 189); transform-origin: 269.27px 189.029px 0px;" id="elc3tiry29eh7" class="animable"></path><path d="M290.88,162.22c-3.75-.13-10.4,13.53-10.4,13.53l9.78,11.86s11.4-14.31,9.84-18.93C298.47,163.86,296.36,162.41,290.88,162.22Z" style="fill: rgb(157, 122, 175); transform-origin: 290.363px 174.915px 0px;" id="el695routm9pe" class="animable"></path><g id="eljkija2msjd"><polygon points="290.26 165.52 285.18 181.45 289.76 186.99 290.26 165.52" style="opacity: 0.2; transform-origin: 287.72px 176.255px 0px;" class="animable"></polygon></g><path d="M247.5,194l-9.11.82-1.5,3.51,1.49,1.67a6.23,6.23,0,0,0,4.83,2.07l9.18-.26-.2-3a2,2,0,0,0-.48-1.18A19.54,19.54,0,0,0,247.5,194Z" style="fill: rgb(255, 195, 189); transform-origin: 244.64px 198.036px 0px;" id="el9vxydu99115" class="animable"></path><path d="M250.76,198.84c-3.11-.55-2.79-3.42-8.67-5.41-2.08-.7-2.76-2.53-.88-2.27,4.13.55,11.76-.45,11.36,6.22C252.33,201.42,250.76,198.84,250.76,198.84Z" style="fill: rgb(255, 195, 189); transform-origin: 246.347px 195.393px 0px;" id="elba4t6gh00bn" class="animable"></path><path d="M210.51,200.44l-41.85,2.26a3.49,3.49,0,0,1-2.67-1.09l-5-5.14,56.55-3.07L213,199.06A3.49,3.49,0,0,1,210.51,200.44Z" style="fill: rgb(157, 122, 175); transform-origin: 189.265px 198.051px 0px;" id="elk5bgbgh7bdn" class="animable"></path><g id="elmxacic7tl4o"><path d="M210.51,200.44l-41.85,2.26a3.49,3.49,0,0,1-2.67-1.09l-5-5.14,56.55-3.07L213,199.06A3.49,3.49,0,0,1,210.51,200.44Z" style="fill: rgb(255, 255, 255); opacity: 0.6; transform-origin: 189.265px 198.051px 0px;" class="animable"></path></g><path d="M211.79,196.45a7.16,7.16,0,0,1,4.26-1.75l33.58-1.94a1.33,1.33,0,0,1,1,.33h0a1.4,1.4,0,0,1-.65,2.43l-.38.07a1.41,1.41,0,0,1-1.29-.43l-.06-.08a1.4,1.4,0,0,0-1.11-.45l-35.34,1.82Z" style="fill: rgb(157, 122, 175); transform-origin: 231.45px 194.602px 0px;" id="ell1jhvgefg5" class="animable"></path><path d="M197.86,167.9c-16.25-2.23-25.16-5.31-33.31-1.87C151.88,171.4,174.9,177.73,197.86,167.9Z" style="fill: rgb(157, 122, 175); transform-origin: 179.402px 168.767px 0px;" id="elri0mprmewz8" class="animable"></path><g id="elwbb9si1303n"><path d="M196.89,167.77c-18.32,7.41-36.28,4.7-35.7.61a7,7,0,0,1,3.37-2.34C172.53,162.66,181.26,165.56,196.89,167.77Z" style="opacity: 0.2; transform-origin: 179.033px 168.459px 0px;" class="animable"></path></g><g id="el1eehzkw5ntp"><path d="M196.89,167.77c-18.32,7.41-36.28,4.7-35.7.61a7,7,0,0,1,3.37-2.34C172.53,162.66,181.26,165.56,196.89,167.77Z" style="opacity: 0.2; transform-origin: 179.033px 168.459px 0px;" class="animable"></path></g><path d="M183,172.23c13.69-9.95,17-19.71,26.55-19.57C223.35,152.88,209.8,168,183,172.23Z" style="fill: rgb(157, 122, 175); transform-origin: 199.012px 162.444px 0px;" id="eljfq3s8sex5g" class="animable"></path><g id="el1xy22iht722"><path d="M209.59,152.66c-9.61-.15-12.86,9.62-26.55,19.57l1.33-.22c12.79-9.67,16.13-18.91,25.47-18.77,2.78,0,4.44.7,5.11,1.75C214.58,153.6,212.86,152.71,209.59,152.66Z" style="fill: rgb(255, 255, 255); opacity: 0.4; transform-origin: 198.995px 162.444px 0px;" class="animable"></path></g><polygon points="306.92 407.56 298.09 407.56 299.63 387.12 308.46 387.12 306.92 407.56" style="fill: rgb(255, 195, 189); transform-origin: 303.275px 397.34px 0px;" id="elmfhyi9frd98" class="animable"></polygon><path d="M297.29,406.54h9.91a.66.66,0,0,1,.68.6l.7,7.85a1.51,1.51,0,0,1-1.5,1.57c-3.46-.06-5.11-.26-9.48-.26-2.68,0-10.4.28-14.11.28s-3.7-3.67-2.14-4c7-1.49,12-3.54,14.43-5.5A2.45,2.45,0,0,1,297.29,406.54Z" style="fill: rgb(38, 50, 56); transform-origin: 294.471px 411.56px 0px;" id="elo7acadmbkvm" class="animable"></path><g id="elv1n6fmjdc6"><g style="opacity: 0.2; transform-origin: 303.655px 392.39px 0px;" class="animable"><polygon points="299.63 387.12 298.84 397.66 307.67 397.66 308.47 387.12 299.63 387.12" id="eln3mkj8d8qrn" style="transform-origin: 303.655px 392.39px 0px;" class="animable"></polygon></g></g><path d="M287.34,166.6c-.2,5.58.77,18.62,6.64,49l35.84-1.07c-1-14.57-1.32-23.56,4.76-53.7a104.9,104.9,0,0,0-15.28-1.56,114.38,114.38,0,0,0-16.27.49c-4.15.5-8.62,1.36-11.56,2A5.18,5.18,0,0,0,287.34,166.6Z" style="fill: rgb(157, 122, 175); transform-origin: 310.948px 187.387px 0px;" id="elzknt0dm0vzi" class="animable"></path><path d="M317.15,141c-.87,5.26-1.61,14.89,2.15,18.27,0,0-1.84,6.57-12.86,11.22C300,165.35,303,159.73,303,159.73c5.8-1.57,5.52-5.9,4.38-9.94Z" style="fill: rgb(255, 195, 189); transform-origin: 310.801px 155.745px 0px;" id="elr0cokqwya4j" class="animable"></path><g id="el3dgz7fi7m52"><path d="M313.18,144.57l-5.77,5.22a15.41,15.41,0,0,1,.59,2.87c2.22-.39,5.21-2.93,5.38-5.27A8.05,8.05,0,0,0,313.18,144.57Z" style="opacity: 0.2; transform-origin: 310.417px 148.615px 0px;" class="animable"></path></g><path d="M312.57,122.44c1.15,2.12-2.84,17.23-6.21,24.34-2.12-3.43-5.46-5-7.48-8.49a14.59,14.59,0,0,1,.72-16.4C304.2,115.44,311,119.47,312.57,122.44Z" style="fill: rgb(38, 50, 56); transform-origin: 304.736px 132.61px 0px;" id="el128iji4z908a" class="animable"></path><path d="M323,131.11c-1.57,8.62-2.05,12.3-7,16.23-7.4,5.92-17.65,2.1-18.68-6.82-.93-8,1.8-20.77,10.71-23.21A12,12,0,0,1,323,131.11Z" style="fill: rgb(255, 195, 189); transform-origin: 310.178px 133.533px 0px;" id="eln68leddps5" class="animable"></path><path d="M318.63,123.78c-2.51,3.23,0,11.11,2.64,14.18,11.6,1.17,17.85-23.69-1.46-23.69C319.81,114.27,312.71,118.69,318.63,123.78Z" style="fill: rgb(38, 50, 56); transform-origin: 324.237px 126.135px 0px;" id="elupufzxhaagp" class="animable"></path><path d="M321.31,124.86c-2,1.36-18.6,1.09-26-1.53,3.2-2.46,5.41-5.52,8.68-7.9,3.45-2.5,8.13-4.55,15.39-1.37S324.09,123,321.31,124.86Z" style="fill: rgb(38, 50, 56); transform-origin: 309.712px 119.05px 0px;" id="eld3mx5uidlol" class="animable"></path><path d="M293.94,215.57s.95,65.58,2,92.39c1.11,27.88,1.29,87.66,1.29,87.66h11.93s5.81-60.79,6.37-88.3c.61-30,4.68-92.53,4.68-92.53Z" style="fill: rgb(38, 50, 56); transform-origin: 307.075px 305.205px 0px;" id="elr2h00ox1uuf" class="animable"></path><polygon points="310.19 396.05 296.19 396.05 295.4 391.58 311.12 391.03 310.19 396.05" style="fill: rgb(157, 122, 175); transform-origin: 303.26px 393.54px 0px;" id="el3o03ajhb1ay" class="animable"></polygon><g id="el4icevygfmcw"><path d="M318.79,238.21c-1.36-1.61-3-.77-5,3.81-6.81,15.64-1.82,40.6,2.07,55C316.47,279.1,317.76,255.52,318.79,238.21Z" style="opacity: 0.2; transform-origin: 314.606px 267.239px 0px;" class="animable"></path></g><path d="M308.18,132.43c-.09.7-.53,1.23-1,1.18s-.77-.68-.69-1.38.53-1.24,1-1.18S308.26,131.72,308.18,132.43Z" style="fill: rgb(38, 50, 56); transform-origin: 307.335px 132.329px 0px;" id="elsov993b9xu" class="animable"></path><path d="M300.22,131.27c-.09.71-.53,1.24-1,1.18s-.77-.67-.69-1.38.53-1.24,1-1.18S300.3,130.56,300.22,131.27Z" style="fill: rgb(38, 50, 56); transform-origin: 299.375px 131.17px 0px;" id="elnuhv8vgprzk" class="animable"></path><path d="M299.73,130l-1.64-.69S298.81,130.69,299.73,130Z" style="fill: rgb(38, 50, 56); transform-origin: 298.91px 129.752px 0px;" id="el81rrhrtbrpx" class="animable"></path><path d="M303.19,132.37a19.23,19.23,0,0,1-3.06,4.21,3.05,3.05,0,0,0,2.46.77Z" style="fill: rgb(237, 132, 126); transform-origin: 301.66px 134.873px 0px;" id="elcj4yb97deiq" class="animable"></path><path d="M306.11,140.58a7.6,7.6,0,0,1-1.05,0,.22.22,0,0,1-.18-.24.22.22,0,0,1,.23-.18,5.62,5.62,0,0,0,4.83-1.64.21.21,0,1,1,.32.27A5.83,5.83,0,0,1,306.11,140.58Z" style="fill: rgb(38, 50, 56); transform-origin: 307.6px 139.515px 0px;" id="eli0f2iq3plfj" class="animable"></path><path d="M324,139.52a6.36,6.36,0,0,1-4.56,1.76c-2.25-.08-2.69-2.25-1.51-4,1.07-1.59,3.53-3.47,5.51-2.53A2.87,2.87,0,0,1,324,139.52Z" style="fill: rgb(255, 195, 189); transform-origin: 321.162px 137.89px 0px;" id="elshp7jqvc2nj" class="animable"></path><path d="M311.71,130.54a.41.41,0,0,1-.41-.28c-.66-1.81-3.06-2.49-3.09-2.49a.42.42,0,0,1-.29-.52.42.42,0,0,1,.51-.29c.12,0,2.85.8,3.65,3a.4.4,0,0,1-.25.53A.27.27,0,0,1,311.71,130.54Z" style="fill: rgb(38, 50, 56); transform-origin: 310.006px 128.743px 0px;" id="elwuo2msnpqg" class="animable"></path><path d="M298.35,126.85a.45.45,0,0,1-.37-.2.42.42,0,0,1,.13-.57,4.17,4.17,0,0,1,3.79-.45.42.42,0,0,1,.21.56.42.42,0,0,1-.55.21h0a3.28,3.28,0,0,0-3,.38A.52.52,0,0,1,298.35,126.85Z" style="fill: rgb(38, 50, 56); transform-origin: 300.034px 126.108px 0px;" id="elus18vuea8z" class="animable"></path><path d="M334.58,160.8c3.63,1,8.31,13.22,8.31,13.22l-13.64,10.37s-5.39-10.17-4-14.86C326.66,164.65,330.45,159.67,334.58,160.8Z" style="fill: rgb(157, 122, 175); transform-origin: 333.955px 172.514px 0px;" id="elemcblav3ic5" class="animable"></path><path d="M293.89,408.08a3.16,3.16,0,0,1-2.11-.54,1.1,1.1,0,0,1-.33-1,.71.71,0,0,1,.39-.55c1.11-.6,4.53,1.2,4.92,1.41a.18.18,0,0,1,.1.21.24.24,0,0,1-.18.18A15.24,15.24,0,0,1,293.89,408.08Zm-1.48-1.82a.88.88,0,0,0-.39.07.27.27,0,0,0-.15.23.72.72,0,0,0,.2.67c.51.48,2,.56,3.93.24A10.82,10.82,0,0,0,292.41,406.26Z" style="fill: rgb(157, 122, 175); transform-origin: 294.149px 406.982px 0px;" id="elwvz24bmbcri" class="animable"></path><path d="M296.64,407.77a.11.11,0,0,1-.08,0c-1-.47-3-2.38-2.79-3.38.05-.23.24-.53.82-.59a1.48,1.48,0,0,1,1.14.36c1.06.93,1.13,3.31,1.13,3.41a.2.2,0,0,1-.1.18A.17.17,0,0,1,296.64,407.77Zm-1.91-3.58h-.12c-.39,0-.42.19-.43.24-.13.6,1.2,2.1,2.24,2.75a4.58,4.58,0,0,0-1-2.72A1,1,0,0,0,294.73,404.19Z" style="fill: rgb(157, 122, 175); transform-origin: 295.307px 405.784px 0px;" id="elmbtlphlmy4b" class="animable"></path><polygon points="358.71 407.56 349.89 407.56 345.66 387.12 354.49 387.12 358.71 407.56" style="fill: rgb(255, 195, 189); transform-origin: 352.185px 397.34px 0px;" id="ellju4s6p8gsd" class="animable"></polygon><path d="M348.88,406.54h9.92a.68.68,0,0,1,.69.6l1,7.85a1.44,1.44,0,0,1-1.44,1.57c-3.46-.06-5.12-.26-9.48-.26-2.69,0-5.3.28-9,.28s-3.84-3.67-2.29-4c6.94-1.49,6.76-3.54,9.13-5.5A2.33,2.33,0,0,1,348.88,406.54Z" style="fill: rgb(38, 50, 56); transform-origin: 348.922px 411.56px 0px;" id="ela4us6kwyynt" class="animable"></path><g id="elix4dbwdflmd"><g style="opacity: 0.2; transform-origin: 351.17px 392.39px 0px;" class="animable"><polygon points="345.67 387.12 347.84 397.66 356.67 397.66 354.5 387.12 345.67 387.12" id="el23fiqpbmgbo" style="transform-origin: 351.17px 392.39px 0px;" class="animable"></polygon></g></g><path d="M329.84,214.5c9.46,13.67,12.93,63.87,16,90.7,3.16,27.92,11.3,90.42,11.3,90.42H345.18S332.42,332,325.39,305.06c-7.77-29.74-18.5-90.56-18.5-90.56Z" style="fill: rgb(38, 50, 56); transform-origin: 332.015px 305.06px 0px;" id="el2j841w5gylt" class="animable"></path><polygon points="357.95 396.05 343.94 396.05 343.15 391.58 358.87 391.03 357.95 396.05" style="fill: rgb(157, 122, 175); transform-origin: 351.01px 393.54px 0px;" id="elornfdjwd1os" class="animable"></polygon><path d="M347.75,406.79a4.37,4.37,0,0,1-2-1.42,1.17,1.17,0,0,1-.13-1.08.56.56,0,0,1,.49-.35c1.22-.07,4.26,3.07,4.6,3.43a.23.23,0,0,1,.06.24.17.17,0,0,1-.21.09A18.28,18.28,0,0,1,347.75,406.79Zm-1.1-2.33a.9.9,0,0,0-.41-.1.2.2,0,0,0-.19.15.73.73,0,0,0,.07.7c.41.67,1.83,1.37,3.85,1.92A15.51,15.51,0,0,0,346.65,404.46Z" style="fill: rgb(157, 122, 175); transform-origin: 348.163px 405.824px 0px;" id="el7e3y0w2ggdl" class="animable"></path><path d="M350.54,407.69a.24.24,0,0,1-.08-.06c-.92-.88-2.51-3.5-2.11-4.33.1-.2.34-.39.93-.19a2,2,0,0,1,1.06.82,5.86,5.86,0,0,1,.46,3.64.15.15,0,0,1-.13.13A.29.29,0,0,1,350.54,407.69Zm-1.2-4.14-.12-.05c-.39-.13-.45,0-.47,0-.25.5.78,2.46,1.68,3.51a5,5,0,0,0-.44-2.94A1.4,1.4,0,0,0,349.34,403.55Z" style="fill: rgb(157, 122, 175); transform-origin: 349.598px 405.364px 0px;" id="eln0nep0k4tsb" class="animable"></path><path d="M307.69,131.11l-1.64-.69S306.77,131.85,307.69,131.11Z" style="fill: rgb(38, 50, 56); transform-origin: 306.87px 130.871px 0px;" id="el8nwk51xna9" class="animable"></path><path d="M330.3,212.38l1,3.18c.13.25-.16.51-.57.52l-36.89,1.1c-.32,0-.59-.14-.62-.34l-.42-3.2c0-.22.25-.42.6-.43l36.29-1.08A.66.66,0,0,1,330.3,212.38Z" style="fill: rgb(157, 122, 175); transform-origin: 312.066px 214.652px 0px;" id="el0xwfa1cjsz1" class="animable"></path><path d="M325.54,216.59l1,0c.2,0,.34-.11.32-.23l-.58-4.16c0-.12-.18-.22-.38-.21l-1,0c-.19,0-.34.11-.32.23l.58,4.16C325.18,216.5,325.35,216.59,325.54,216.59Z" style="fill: rgb(38, 50, 56); transform-origin: 325.72px 214.29px 0px;" id="elp9lx2sonnc" class="animable"></path><path d="M296.59,217.45l1,0c.19,0,.33-.11.32-.23l-.58-4.16c0-.12-.19-.21-.39-.21l-1,0c-.19,0-.34.11-.32.23l.58,4.16C296.23,217.36,296.4,217.45,296.59,217.45Z" style="fill: rgb(38, 50, 56); transform-origin: 296.764px 215.15px 0px;" id="el1sp1vem3qvk" class="animable"></path><path d="M311.07,217l1,0c.19,0,.34-.11.32-.23l-.58-4.16c0-.12-.19-.22-.38-.21l-1,0c-.2,0-.34.11-.33.23l.58,4.16C310.7,216.93,310.87,217,311.07,217Z" style="fill: rgb(38, 50, 56); transform-origin: 311.246px 214.7px 0px;" id="elq27jmvn3wp8" class="animable"></path><path d="M334,221.89c-21.7-1.18-16.33-47.41-16.33-47.41H317c.91-3.66,3.86-11.61,7.77-15.12a4.39,4.39,0,0,0-1.76-.19,37.42,37.42,0,0,0-7.32,15.34l-16.55.36c-.43-4.09-.94-10.73,1.82-15.31a4.19,4.19,0,0,0-1.73.24s-2.73,5.19-1.39,15.1h-.29c0,25.72.28,41.68-4.71,46.39-1,7.91,0,51.68,0,51.68s21.82,4.69,43.24-2.18C331.84,240.65,336.22,225.57,334,221.89Z" style="fill: rgb(157, 122, 175); transform-origin: 314.238px 216.841px 0px;" id="el6itcevtg628" class="animable"></path><g id="el2bh47fkvxmp"><path d="M334,221.89c-21.7-1.18-16.33-47.41-16.33-47.41H317c.91-3.66,3.86-11.61,7.77-15.12a4.39,4.39,0,0,0-1.76-.19,37.42,37.42,0,0,0-7.32,15.34l-16.55.36c-.43-4.09-.94-10.73,1.82-15.31a4.19,4.19,0,0,0-1.73.24s-2.73,5.19-1.39,15.1h-.29c0,25.72.28,41.68-4.71,46.39-1,7.91,0,51.68,0,51.68s21.82,4.69,43.24-2.18C331.84,240.65,336.22,225.57,334,221.89Z" style="fill: rgb(255, 255, 255); opacity: 0.8; transform-origin: 314.238px 216.841px 0px;" class="animable"></path></g><path d="M336.71,217.41l-8.18.52,7.16,7s4.41-1.49,4.2-5.3Z" style="fill: rgb(255, 195, 189); transform-origin: 334.214px 221.17px 0px;" id="elzrj641zab3l" class="animable"></path><polygon points="324.98 223.14 331.16 228.73 335.69 224.96 328.53 217.93 324.98 223.14" style="fill: rgb(255, 195, 189); transform-origin: 330.335px 223.33px 0px;" id="elzdkfyxl450p" class="animable"></polygon></g><defs>     <filter id="active" height="200%">         <feMorphology in="SourceAlpha" result="DILATED" operator="dilate" radius="2"></feMorphology>                <feFlood flood-color="#32DFEC" flood-opacity="1" result="PINK"></feFlood>        <feComposite in="PINK" in2="DILATED" operator="in" result="OUTLINE"></feComposite>        <feMerge>            <feMergeNode in="OUTLINE"></feMergeNode>            <feMergeNode in="SourceGraphic"></feMergeNode>        </feMerge>    </filter>    <filter id="hover" height="200%">        <feMorphology in="SourceAlpha" result="DILATED" operator="dilate" radius="2"></feMorphology>                <feFlood flood-color="#ff0000" flood-opacity="0.5" result="PINK"></feFlood>        <feComposite in="PINK" in2="DILATED" operator="in" result="OUTLINE"></feComposite>        <feMerge>            <feMergeNode in="OUTLINE"></feMergeNode>            <feMergeNode in="SourceGraphic"></feMergeNode>        </feMerge>            <feColorMatrix type="matrix" values="0   0   0   0   0                0   1   0   0   0                0   0   0   0   0                0   0   0   1   0 "></feColorMatrix>    </filter></defs></svg>